# xmcd
#
# Track frame offsets:
# 150
# 16132
# 30449
# 47253
# 61356
# 73369
# 94639
# 111854
# 125964
# 144297
# 163490
#
# Disc length: 2368 seconds
#
#
# Revision: 0
# Processed by: cddbd v1.5.2PL0 Copyright (c) Steve Scherf et al.
# Submitted via: FreeRIP 2.92 
#
DISCID=97093e0b
DTITLE=Marny Duncan-Cary - Reason For Bein'
DYEAR=2003
DGENRE=Country
TTITLE0=Might Be Misbehaving
TTITLE1=Because I Want To
TTITLE2=Headin' Straight For You
TTITLE3=Banner Road
TTITLE4=I Just Kissed My Baby
TTITLE5=Linger
TTITLE6=Love, Life and Laughter
TTITLE7=He Ain't Missin' Missin' Me
TTITLE8=Reason For Bein'
TTITLE9=Who's That Man
TTITLE10=Rockstar
EXTD=
EXTT0=
EXTT1=
EXTT2=
EXTT3=
EXTT4=
EXTT5=
EXTT6=
EXTT7=
EXTT8=
EXTT9=
EXTT10=
PLAYORDER=
